<svg xmlns="http://www.w3.org/2000/svg" viewBox="0 0 240 240">
	<style>.s0{fill:#9CAF88}.s1{fill:#7A8B6A}</style>
	<g transform="translate(20,0) translate(-120,-30)">
		<g id="leafCluster">
			<path class="s0" d="m134.49 209.1c-21.57-22.28-20.62-59.08 8.3-78.37 12.83 24.69 18.75 50.03-8.3 78.37z"/>
			<path class="s0" d="m168.32 159.46c-20.6-23.05-18.24-59.83 11.03-78.08 11.85 25.18 17.12 50.61-11.03 78.08z"/>
			<path class="s0" d="m220.9 138c23.52 20.23 60.08 17.48 77.82-12.41-25.33-11.51-50.94-16.1-77.82 12.41z"/>
			<path class="s0" d="m150.02 214.29c24.91 18.5 61.17 13.15 76.74-17.93-26.09-9.67-51.96-12.42-76.74 17.93z"/>
			<path class="s0" d="m241.64 109.19c30.99 1.01 57.61-24.41 52.47-58.79-26.91 7.08-49.65 19.72-52.47 58.79z"/>
			<path class="s0" d="m178.25 177.37c16.18-26.47 51.99-34.98 77.87-12.06-20.58 18.72-43.54 30.94-77.87 12.06z"/>
			<path class="s0" d="m207.8 120.44c-18.22-25.11-12.46-61.31 18.8-76.52 9.38 26.19 11.83 52.09-18.8 76.52z"/>
		</g>
		<g id="shape2">
			<path class="s1" d="m138.25 240.48l2.66-10.6-7.32-2.89-5.03 8.28c0 0 2.77 7.52-0.3 13.53 0 0 3.85-6.56 9.99-8.32z"/>
			<path class="s1" d="m186.33 148.64c-13.14 12.3-30.33 37.62-44.91 67.2l-0.01-0.01-2.54 5.13 2.71 1.2 1.44-4.32c7.78-16 28.88-57.8 67.46-85.57 0 0 14.37-9.76 28.52-23.27-3.45 3.29-10.24 7.41-13.93 10.07-9.67 6.97-21.61 13.53-38.74 29.57z"/>
			<path fill-rule="evenodd" class="s1" d="m134.13 224.34l8.29 3.32 1.54-3.67-8.29-3.32z"/>
			<path class="s1" d="m255.44 215c-36.79 17.69-72.14 29.74-119.14 31.32-4.39 0.15-4.41 4.54 0 4.39 42.05-1.41 77.04-10.45 110.78-26.27"/>
		</g>
	</g>
</svg>
